<svg width="20" height="16" viewBox="0 0 20 16" fill="none" xmlns="http://www.w3.org/2000/svg">
<path d="M1.66634 1.39159L2.73301 0.333252L16.6663 14.2666L15.608 15.3333L13.0413 12.7666C12.083 13.0833 11.0663 13.2499 9.99967 13.2499C5.83301 13.2499 2.27467 10.6583 0.833008 6.99992C1.40801 5.53325 2.32467 4.24159 3.49134 3.21659L1.66634 1.39159ZM9.99967 4.49992C10.6627 4.49992 11.2986 4.76331 11.7674 5.23215C12.2363 5.70099 12.4997 6.33688 12.4997 6.99992C12.5001 7.28372 12.4522 7.56553 12.358 7.83325L9.16634 4.64159C9.43406 4.5474 9.71587 4.4995 9.99967 4.49992ZM9.99967 0.749919C14.1663 0.749919 17.7247 3.34159 19.1663 6.99992C18.4862 8.72759 17.3305 10.2272 15.833 11.3249L14.6497 10.1333C15.8021 9.33607 16.7315 8.25746 17.3497 6.99992C16.676 5.62487 15.63 4.46639 14.3307 3.65617C13.0314 2.84595 11.5309 2.41648 9.99967 2.41659C9.09134 2.41659 8.19968 2.56659 7.36634 2.83325L6.08301 1.55825C7.28301 1.04159 8.60801 0.749919 9.99967 0.749919ZM2.64967 6.99992C3.32337 8.37497 4.36932 9.53344 5.66862 10.3437C6.96792 11.1539 8.46845 11.5834 9.99967 11.5833C10.5747 11.5833 11.1413 11.5249 11.6663 11.4083L9.76634 9.49992C9.18648 9.43777 8.64536 9.17898 8.23299 8.76661C7.82061 8.35423 7.56183 7.81312 7.49967 7.23325L4.66634 4.39158C3.84134 5.09992 3.14967 5.98325 2.64967 6.99992Z" fill="#BECAE3"/>
</svg>
