<svg
      width="19"
      height="14"
      viewBox="0 0 19 14"
      fill="none"
      xmlns="http://www.w3.org/2000/svg"
    >
      <path
        d="M9.67838 10.9951C10.7201 10.9951 11.6056 10.6307 12.3351 9.90178C13.0639 9.17234 13.4284 8.28678 13.4284 7.24512C13.4284 6.20345 13.0639 5.3179 12.3351 4.58845C11.6056 3.85956 10.7201 3.49512 9.67838 3.49512C8.63672 3.49512 7.75116 3.85956 7.02172 4.58845C6.29283 5.3179 5.92838 6.20345 5.92838 7.24512C5.92838 8.28678 6.29283 9.17234 7.02172 9.90178C7.75116 10.6307 8.63672 10.9951 9.67838 10.9951ZM9.67838 9.49512C9.05338 9.49512 8.52227 9.27623 8.08505 8.83845C7.64727 8.40123 7.42838 7.87012 7.42838 7.24512C7.42838 6.62012 7.64727 6.08873 8.08505 5.65095C8.52227 5.21373 9.05338 4.99512 9.67838 4.99512C10.3034 4.99512 10.8348 5.21373 11.2726 5.65095C11.7098 6.08873 11.9284 6.62012 11.9284 7.24512C11.9284 7.87012 11.7098 8.40123 11.2726 8.83845C10.8348 9.27623 10.3034 9.49512 9.67838 9.49512ZM9.67838 13.4951C7.65061 13.4951 5.80338 12.929 4.13672 11.7968C2.47005 10.6651 1.26172 9.14789 0.511719 7.24512C1.26172 5.34234 2.47005 3.82484 4.13672 2.69262C5.80338 1.56095 7.65061 0.995117 9.67838 0.995117C11.7062 0.995117 13.5534 1.56095 15.2201 2.69262C16.8867 3.82484 18.0951 5.34234 18.8451 7.24512C18.0951 9.14789 16.8867 10.6651 15.2201 11.7968C13.5534 12.929 11.7062 13.4951 9.67838 13.4951ZM9.67838 11.8285C11.2478 11.8285 12.6889 11.4151 14.0017 10.5885C15.3139 9.76234 16.3173 8.64789 17.0117 7.24512C16.3173 5.84234 15.3139 4.72762 14.0017 3.90095C12.6889 3.07484 11.2478 2.66178 9.67838 2.66178C8.10894 2.66178 6.66783 3.07484 5.35505 3.90095C4.04283 4.72762 3.0395 5.84234 2.34505 7.24512C3.0395 8.64789 4.04283 9.76234 5.35505 10.5885C6.66783 11.4151 8.10894 11.8285 9.67838 11.8285Z"
        fill="#BECAE3"
      />
</svg>